HIERARCHY
ROOT pelvis
{
	OFFSET 0.003123 -0.351407 0.012037
	CHANNELS 6 Xposition Yposition Zposition Zrotation Yrotation Xrotation 
	JOINT left_hip
	{
		OFFSET 0.058189 -0.092763 -0.026001
		CHANNELS 3 Zrotation Yrotation Xrotation
		JOINT left_knee
		{
			OFFSET 0.054695 -0.378753 -0.009396
			CHANNELS 3 Zrotation Yrotation Xrotation
			JOINT left_ankle
			{
				OFFSET -0.043453 -0.403059 -0.031876
				CHANNELS 3 Zrotation Yrotation Xrotation
				JOINT left_foot
				{
					OFFSET 0.047257 -0.057997 0.118216
					CHANNELS 3 Zrotation Yrotation Xrotation
					End Site
					{
						OFFSET 0.000000 0.000000 0.000000
					}
				}
			}
		}
	}
	JOINT right_hip
	{
		OFFSET -0.063267 -0.103908 -0.021250
		CHANNELS 3 Zrotation Yrotation Xrotation
		JOINT right_knee
		{
			OFFSET -0.044210 -0.362380 -0.016824
			CHANNELS 3 Zrotation Yrotation Xrotation
			JOINT right_ankle
			{
				OFFSET 0.015417 -0.410728 -0.020192
				CHANNELS 3 Zrotation Yrotation Xrotation
				JOINT right_foot
				{
					OFFSET -0.038812 -0.058328 0.119049
					CHANNELS 3 Zrotation Yrotation Xrotation
					End Site
					{
						OFFSET 0.000000 0.000000 0.000000
					}
				}
			}
		}
	}
	JOINT spine_1
	{
		OFFSET -0.002763 0.109891 -0.027618
		CHANNELS 3 Zrotation Yrotation Xrotation
		JOINT spine_2
		{
			OFFSET 0.009448 0.131853 -0.005940
			CHANNELS 3 Zrotation Yrotation Xrotation
			JOINT spine_3
			{
				OFFSET -0.011330 0.052235 0.028447
				CHANNELS 3 Zrotation Yrotation Xrotation
				JOINT neck
				{
					OFFSET -0.012164 0.165167 -0.031615
					CHANNELS 3 Zrotation Yrotation Xrotation
					JOINT head
					{
						OFFSET 0.024783 0.160452 0.020737
						CHANNELS 3 Zrotation Yrotation Xrotation
						End Site
						{
							OFFSET 0.000000 0.000000 0.000000
						}
					}
				}
				JOINT left_collar
				{
					OFFSET 0.046364 0.084944 -0.007220
					CHANNELS 3 Zrotation Yrotation Xrotation
					JOINT left_shoulder
					{
						OFFSET 0.119239 0.057728 -0.015461
						CHANNELS 3 Zrotation Yrotation Xrotation
						JOINT left_elbow
						{
							OFFSET 0.254123 -0.072151 -0.042459
							CHANNELS 3 Zrotation Yrotation Xrotation
							JOINT left_wrist
							{
								OFFSET 0.251987 0.023221 -0.002472
								CHANNELS 3 Zrotation Yrotation Xrotation
								JOINT left_index_1
								{
									OFFSET 0.101902 -0.008688 0.019351
									CHANNELS 3 Zrotation Yrotation Xrotation
									JOINT left_index_2
									{
										OFFSET 0.030149 -0.011154 0.001151
										CHANNELS 3 Zrotation Yrotation Xrotation
										JOINT left_index_3
										{
											OFFSET 0.006504 -0.021577 -0.002433
											CHANNELS 3 Zrotation Yrotation Xrotation
											End Site
											{
												OFFSET 0.000000 0.000000 0.000000
											}
										}
									}
								}
								JOINT left_middle_1
								{
									OFFSET 0.109398 -0.006328 -0.003981
									CHANNELS 3 Zrotation Yrotation Xrotation
									JOINT left_middle_2
									{
										OFFSET 0.026472 -0.015218 -0.004641
										CHANNELS 3 Zrotation Yrotation Xrotation
										JOINT left_middle_3
										{
											OFFSET 0.005022 -0.023347 -0.001911
											CHANNELS 3 Zrotation Yrotation Xrotation
											End Site
											{
												OFFSET 0.000000 0.000000 0.000000
											}
										}
									}
								}
								JOINT left_pinky_1
								{
									OFFSET 0.084047 -0.014539 -0.043750
									CHANNELS 3 Zrotation Yrotation Xrotation
									JOINT left_pinky_2
									{
										OFFSET 0.012124 -0.014448 -0.005375
										CHANNELS 3 Zrotation Yrotation Xrotation
										JOINT left_pinky_3
										{
											OFFSET 0.003798 -0.018853 0.000167
											CHANNELS 3 Zrotation Yrotation Xrotation
											End Site
											{
												OFFSET 0.000000 0.000000 0.000000
											}
										}
									}
								}
								JOINT left_ring_1
								{
									OFFSET 0.097444 -0.009268 -0.027345
									CHANNELS 3 Zrotation Yrotation Xrotation
									JOINT left_ring_2
									{
										OFFSET 0.023561 -0.016057 -0.001895
										CHANNELS 3 Zrotation Yrotation Xrotation
										JOINT left_ring_3
										{
											OFFSET 0.004257 -0.023548 0.000814
											CHANNELS 3 Zrotation Yrotation Xrotation
											End Site
											{
												OFFSET 0.000000 0.000000 0.000000
											}
										}
									}
								}
								JOINT left_thumb_1
								{
									OFFSET 0.040636 -0.017977 0.025611
									CHANNELS 3 Zrotation Yrotation Xrotation
									JOINT left_thumb_2
									{
										OFFSET 0.021637 -0.017639 0.011623
										CHANNELS 3 Zrotation Yrotation Xrotation
										JOINT left_thumb_3
										{
											OFFSET 0.024002 -0.008356 0.006548
											CHANNELS 3 Zrotation Yrotation Xrotation
											End Site
											{
												OFFSET 0.000000 0.000000 0.000000
											}
										}
									}
								}
							}
						}
					}
				}
				JOINT right_collar
				{
					OFFSET -0.047695 0.084339 -0.013400
					CHANNELS 3 Zrotation Yrotation Xrotation
					JOINT right_shoulder
					{
						OFFSET -0.102578 0.053524 -0.012669
						CHANNELS 3 Zrotation Yrotation Xrotation
						JOINT right_elbow
						{
							OFFSET -0.271150 -0.036492 -0.026467
							CHANNELS 3 Zrotation Yrotation Xrotation
							JOINT right_wrist
							{
								OFFSET -0.249267 -0.004533 -0.015325
								CHANNELS 3 Zrotation Yrotation Xrotation
								JOINT right_index_1
								{
									OFFSET -0.099881 -0.011783 0.019600
									CHANNELS 3 Zrotation Yrotation Xrotation
									JOINT right_index_2
									{
										OFFSET -0.030148 -0.011154 0.001151
										CHANNELS 3 Zrotation Yrotation Xrotation
										JOINT right_index_3
										{
											OFFSET -0.006505 -0.021577 -0.002432
											CHANNELS 3 Zrotation Yrotation Xrotation
											End Site
											{
												OFFSET 0.000000 0.000000 0.000000
											}
										}
									}
								}
								JOINT right_middle_1
								{
									OFFSET -0.107376 -0.009422 -0.003734
									CHANNELS 3 Zrotation Yrotation Xrotation
									JOINT right_middle_2
									{
										OFFSET -0.026472 -0.015218 -0.004641
										CHANNELS 3 Zrotation Yrotation Xrotation
										JOINT right_middle_3
										{
											OFFSET -0.005022 -0.023347 -0.001911
											CHANNELS 3 Zrotation Yrotation Xrotation
											End Site
											{
												OFFSET 0.000000 0.000000 0.000000
											}
										}
									}
								}
								JOINT right_pinky_1
								{
									OFFSET -0.082027 -0.017634 -0.043503
									CHANNELS 3 Zrotation Yrotation Xrotation
									JOINT right_pinky_2
									{
										OFFSET -0.012123 -0.014448 -0.005374
										CHANNELS 3 Zrotation Yrotation Xrotation
										JOINT right_pinky_3
										{
											OFFSET -0.003798 -0.018852 0.000167
											CHANNELS 3 Zrotation Yrotation Xrotation
											End Site
											{
												OFFSET 0.000000 0.000000 0.000000
											}
										}
									}
								}
								JOINT right_ring_1
								{
									OFFSET -0.095423 -0.012362 -0.027099
									CHANNELS 3 Zrotation Yrotation Xrotation
									JOINT right_ring_2
									{
										OFFSET -0.023561 -0.016057 -0.001895
										CHANNELS 3 Zrotation Yrotation Xrotation
										JOINT right_ring_3
										{
											OFFSET -0.004257 -0.023548 0.000816
											CHANNELS 3 Zrotation Yrotation Xrotation
											End Site
											{
												OFFSET 0.000000 0.000000 0.000000
											}
										}
									}
								}
								JOINT right_thumb_1
								{
									OFFSET -0.038613 -0.021074 0.025861
									CHANNELS 3 Zrotation Yrotation Xrotation
									JOINT right_thumb_2
									{
										OFFSET -0.021636 -0.017639 0.011623
										CHANNELS 3 Zrotation Yrotation Xrotation
										JOINT right_thumb_3
										{
											OFFSET -0.024004 -0.008353 0.006547
											CHANNELS 3 Zrotation Yrotation Xrotation
											End Site
											{
												OFFSET 0.000000 0.000000 0.000000
											}
										}
									}
								}
							}
						}
					}
				}
			}
		}
	}
}
MOTION
Frames: 6
Frame Time: 0.050000
0.000027 0.937555 0.000587 -1.709805 -3.551414 -0.973643 7.875080 0.917991 12.728209 4.091862 -0.174694 -1.257193 -2.562870 -3.426599 2.240411 0.000000 0.000000 0.000000 -3.246856 -0.802035 10.931761 -0.869552 0.122648 1.910408 -1.718257 -1.722173 -2.589168 0.000000 0.000000 0.000000 6.728573 -1.592578 14.459724 -12.679474 -3.558187 -32.274632 6.195955 -0.102691 39.186165 6.937533 0.660239 -10.259104 0.000000 0.000000 0.000000 -1.387018 8.827287 -4.633594 -57.182253 -14.882825 -6.968059 -40.166913 -13.904101 6.691837 10.943555 -3.753133 21.355147 -10.283962 4.592164 1.419699 15.940268 -1.939504 5.738220 0.000000 0.000000 0.000000 -12.190049 0.262079 -2.392926 4.736537 0.022990 8.934069 0.000000 0.000000 0.000000 25.681327 -11.497338 -1.915801 -12.347325 0.577639 -0.625088 0.000000 0.000000 0.000000 0.259745 -2.676134 -1.677026 -2.869681 0.282337 3.466825 0.000000 0.000000 0.000000 5.885137 9.409273 7.060392 -6.640577 -5.636533 0.652143 0.000000 0.000000 0.000000 3.924758 1.619984 0.497488 62.966768 16.333921 -1.960756 24.971658 25.145969 4.060680 -5.718357 5.083923 21.403192 13.082471 -5.339470 1.626870 -12.138182 0.873141 6.315298 0.000000 0.000000 0.000000 16.394973 -0.939669 -2.911969 -0.813032 -0.718642 6.786344 0.000000 0.000000 0.000000 -18.804776 8.450114 -0.394875 15.085781 -0.077736 -6.083550 0.000000 0.000000 0.000000 7.149141 0.030254 -1.033487 2.037263 0.000244 0.076515 0.000000 0.000000 0.000000 -3.429955 -7.479950 6.186389 3.984918 2.742051 0.574946 0.000000 0.000000 0.000000 
0.000027 0.937555 0.000587 -1.780707 -3.632007 -1.141473 7.884684 0.943134 12.962821 4.001358 -0.211428 -0.960875 -2.154346 -3.164225 1.566524 0.000000 0.000000 0.000000 -3.339911 -0.801903 11.117672 -0.746060 0.115162 1.909871 -1.524124 -1.306383 -2.594555 0.000000 0.000000 0.000000 6.591602 -1.665526 15.150020 -12.446996 -3.877568 -33.223636 6.152447 0.063951 39.827714 6.964156 0.674804 -10.383653 0.000000 0.000000 0.000000 -1.312443 8.927781 -4.676543 -57.208095 -14.679419 -7.060931 -40.264804 -14.184597 6.853271 10.969436 -3.750299 21.505108 -9.903705 4.901899 1.520948 16.757517 -2.209148 5.266663 0.000000 0.000000 0.000000 -11.879973 0.313447 -2.326358 5.362933 -0.662773 4.599236 0.000000 0.000000 0.000000 25.425568 -11.404461 -1.847154 -12.548885 0.548364 -0.923329 0.000000 0.000000 0.000000 0.097548 -2.632934 -1.667561 -1.005681 0.122622 3.934178 0.000000 0.000000 0.000000 5.647562 9.190924 6.911442 -6.414591 -5.415176 0.633356 0.000000 0.000000 0.000000 3.717004 1.907425 0.685213 63.009965 16.738484 -1.785870 24.867073 25.559473 4.149070 -5.400840 3.964471 21.516257 12.583716 -4.241053 1.360898 -11.541913 1.123522 4.783575 0.000000 0.000000 0.000000 17.434576 -1.482627 -2.950059 -5.531930 0.828763 3.275787 0.000000 0.000000 0.000000 -20.530337 11.171805 -2.622774 13.380268 -0.320023 -3.988702 0.000000 0.000000 0.000000 5.818623 2.856700 -2.121564 0.871575 0.003874 1.485870 0.000000 0.000000 0.000000 -3.289917 -6.931595 5.691061 3.125238 2.529970 0.332368 0.000000 0.000000 0.000000 
0.000027 0.937555 0.000587 -2.005186 -3.636513 -0.896725 7.862845 0.917732 12.679391 4.132226 -0.228414 -0.913588 -1.699239 -2.296536 1.495723 0.000000 0.000000 0.000000 -3.235836 -0.825073 11.206582 -0.838741 0.106856 1.607492 -1.080780 -0.192176 -2.838415 0.000000 0.000000 0.000000 6.609483 -1.678579 15.194950 -12.604079 -3.710916 -32.743296 6.262327 0.006178 38.926539 6.989357 0.680390 -10.347928 0.000000 0.000000 0.000000 -1.327547 8.886869 -4.655298 -57.130805 -14.945111 -6.936526 -40.371467 -13.909606 6.723180 11.326225 -2.638690 20.931487 -10.554355 4.921713 1.494133 15.355813 -1.858656 5.372281 0.000000 0.000000 0.000000 -12.932602 0.185840 -2.564592 7.268890 -0.888119 5.879493 0.000000 0.000000 0.000000 26.020302 -10.972205 -1.166584 -9.053632 -0.196787 -5.120652 0.000000 0.000000 0.000000 0.403365 -2.396492 -1.513539 -3.096659 0.312395 3.632574 0.000000 0.000000 0.000000 4.561961 10.286482 8.291856 -4.926992 -6.716118 -0.266939 0.000000 0.000000 0.000000 3.564961 1.613982 0.527426 63.032552 16.497164 -1.856194 25.284241 25.755428 4.263645 -5.512234 4.338636 21.962742 12.057670 -4.269585 1.387612 -10.380076 0.462241 6.175451 0.000000 0.000000 0.000000 15.904560 0.246857 -3.236188 -2.140442 -0.502409 7.269300 0.000000 0.000000 0.000000 -18.869577 9.618503 -1.456256 12.162826 -0.323549 -4.430696 0.000000 0.000000 0.000000 6.238229 0.919772 -1.304861 0.756722 0.053698 0.515847 0.000000 0.000000 0.000000 -3.722903 -7.629702 6.333028 2.838510 4.649449 -0.326015 0.000000 0.000000 0.000000 
-0.000268 0.937394 0.001907 -2.006350 -3.597196 -0.704736 7.860209 0.908056 12.622110 4.104677 -0.206645 -1.045452 -1.650877 -2.160485 1.541180 0.000000 0.000000 0.000000 -3.232138 -0.791321 10.793258 -0.774974 0.128241 2.162941 -1.187121 -0.259414 -3.059622 0.000000 0.000000 0.000000 6.649086 -1.593921 14.462280 -12.631350 -3.619323 -32.436128 6.131826 -0.110994 39.471072 7.041465 0.716321 -10.603350 0.000000 0.000000 0.000000 -1.346463 8.862399 -4.646195 -57.061963 -14.971034 -6.938718 -40.231587 -14.205787 6.857541 11.173477 -3.463601 21.027053 -9.524815 4.309465 1.374725 14.838261 -1.868113 4.931292 0.000000 0.000000 0.000000 -12.086768 -0.634902 -2.705213 4.859936 0.064175 9.269112 0.000000 0.000000 0.000000 25.901067 -12.198441 -2.837624 -11.553450 0.673155 0.497748 0.000000 0.000000 0.000000 -1.437473 -0.440045 -0.681149 0.596102 -0.280093 -1.214701 0.000000 0.000000 0.000000 5.732733 9.136383 6.781363 -7.429034 -4.102486 1.297345 0.000000 0.000000 0.000000 3.641455 1.800162 0.623677 62.785154 16.904733 -1.744617 25.200680 26.105790 4.331513 -5.457929 3.646864 21.486362 12.188929 -4.660062 1.496890 -12.078830 1.404669 4.190391 0.000000 0.000000 0.000000 14.753327 1.470363 -3.443998 -1.431116 -0.765771 7.507090 0.000000 0.000000 0.000000 -20.519044 10.885678 -2.342672 12.266255 -0.298510 -3.781883 0.000000 0.000000 0.000000 5.526103 2.419700 -1.899278 0.203630 0.058685 1.123639 0.000000 0.000000 0.000000 -3.670357 -7.128372 5.774693 3.901833 2.908131 0.505469 0.000000 0.000000 0.000000 
-0.000916 0.937394 0.001907 -1.782167 -3.649763 -1.137296 7.802950 0.969987 13.146348 4.226747 -0.153663 -1.476943 -2.260178 -2.796773 2.270148 0.000000 0.000000 0.000000 -3.294547 -0.824627 11.310082 -0.800605 0.109793 1.719669 -1.446786 -1.140641 -2.597562 0.000000 0.000000 0.000000 6.557294 -1.661389 15.139839 -12.493338 -3.868987 -33.228639 6.249165 0.069696 39.841671 6.964741 0.749624 -10.743419 0.000000 0.000000 0.000000 -1.300666 8.884776 -4.652657 -57.170348 -15.054014 -6.980823 -39.939996 -13.902545 6.657048 10.896935 -3.888721 21.120040 -9.994772 5.049358 1.567737 16.298889 -2.073771 5.425032 0.000000 0.000000 0.000000 -12.021154 0.527125 -2.257960 4.760481 -0.539523 4.620745 0.000000 0.000000 0.000000 25.105395 -11.472799 -2.054717 -12.669815 0.589438 -0.420477 0.000000 0.000000 0.000000 -0.436840 -2.789722 -1.787641 -1.056386 0.145252 4.339839 0.000000 0.000000 0.000000 5.342751 9.092881 6.875060 -5.661429 -4.310876 0.657406 0.000000 0.000000 0.000000 3.562542 1.808469 0.644321 62.869103 17.037204 -1.655325 25.016913 25.840677 4.243974 -5.728176 4.215234 21.663125 12.047384 -4.661115 1.499418 -11.190643 0.814759 5.653932 0.000000 0.000000 0.000000 15.829803 -0.075730 -3.108034 -0.535280 -0.686867 5.998360 0.000000 0.000000 0.000000 -18.294293 9.292848 -1.383136 12.864372 -0.160527 -5.206553 0.000000 0.000000 0.000000 6.393478 0.540798 -1.158734 2.217495 0.009002 -0.801992 0.000000 0.000000 0.000000 -3.285802 -7.024130 5.791484 2.132547 2.568701 -0.029948 0.000000 0.000000 0.000000 
-0.001858 0.937233 0.001907 -1.676112 -3.114015 -1.172670 7.893906 0.920782 12.969832 4.155764 -0.165083 -1.331991 -2.382193 -3.081939 2.195112 0.000000 0.000000 0.000000 -3.218112 -0.869544 11.527977 -0.919954 0.109599 1.540338 -1.512496 -1.331380 -2.556962 0.000000 0.000000 0.000000 6.602109 -1.612281 14.726342 -12.534232 -3.596359 -32.334514 6.062814 -0.261775 39.173994 7.029383 0.727096 -10.607531 0.000000 0.000000 0.000000 -1.451318 8.992401 -4.731004 -57.043603 -14.831286 -7.012997 -40.210644 -14.385772 6.934156 11.182133 -2.681326 20.984386 -9.638078 3.789241 1.216869 14.612691 -1.603217 5.772895 0.000000 0.000000 0.000000 -11.582015 -1.044918 -2.755375 3.657603 0.408528 9.507212 0.000000 0.000000 0.000000 27.232398 -12.767119 -3.238155 -13.096874 0.748840 0.204092 0.000000 0.000000 0.000000 -0.953440 -1.047790 -0.926411 2.047779 -0.289644 0.110925 0.000000 0.000000 0.000000 5.641054 9.123966 6.803424 -7.279962 -4.113261 1.245486 0.000000 0.000000 0.000000 3.695916 1.810118 0.632328 62.881984 16.759175 -1.717253 24.722275 25.811611 4.171091 -5.355473 3.715971 21.429239 11.819546 -4.864082 1.573662 -12.845274 1.644030 3.881441 0.000000 0.000000 0.000000 17.445165 -1.477894 -2.960457 -5.737963 0.890990 2.948192 0.000000 0.000000 0.000000 -20.488789 10.809882 -2.332432 13.145877 -0.208277 -4.543840 0.000000 0.000000 0.000000 5.449704 2.539389 -1.942481 1.339076 -0.019992 0.944637 0.000000 0.000000 0.000000 -3.699036 -6.697783 5.321109 3.524490 1.198767 0.816935 0.000000 0.000000 0.000000 
